<?xml version="1.0" encoding="UTF-8" standalone="no"?>
<!-- Created with Inkscape (http://www.inkscape.org/) -->

<svg
   xmlns:dc="http://purl.org/dc/elements/1.1/"
   xmlns:cc="http://creativecommons.org/ns#"
   xmlns:rdf="http://www.w3.org/1999/02/22-rdf-syntax-ns#"
   xmlns:svg="http://www.w3.org/2000/svg"
   xmlns="http://www.w3.org/2000/svg"
   xmlns:sodipodi="http://sodipodi.sourceforge.net/DTD/sodipodi-0.dtd"
   xmlns:inkscape="http://www.inkscape.org/namespaces/inkscape"
   width="400"
   height="600"
   id="svg2"
   version="1.1"
   inkscape:version="0.48.4 r9939"
   sodipodi:docname="crypto-lock-plottable-outlines.svg">
  <defs
     id="defs4" />
  <sodipodi:namedview
     id="base"
     pagecolor="#ffffff"
     bordercolor="#666666"
     borderopacity="1.0"
     inkscape:pageopacity="0.0"
     inkscape:pageshadow="2"
     inkscape:zoom="0.7"
     inkscape:cx="288.15548"
     inkscape:cy="207.68615"
     inkscape:document-units="px"
     inkscape:current-layer="layer1"
     showgrid="false"
     width="400px"
     inkscape:window-width="1024"
     inkscape:window-height="560"
     inkscape:window-x="0"
     inkscape:window-y="0"
     inkscape:window-maximized="1" />
  <metadata
     id="metadata7">
    <rdf:RDF>
      <cc:Work
         rdf:about="">
        <dc:format>image/svg+xml</dc:format>
        <dc:type
           rdf:resource="http://purl.org/dc/dcmitype/StillImage" />
        <dc:title></dc:title>
      </cc:Work>
    </rdf:RDF>
  </metadata>
  <g
     inkscape:label="Ebene 1"
     inkscape:groupmode="layer"
     id="layer1"
     transform="translate(0,-452.36218)">
    <path
       id="path3123"
       d="m 288.63715,827.54939 2.52454,-9.77751 7.1227,-1.97828 7.20532,7.07504 z m 84.90076,2e-5 5.04906,-8.74527 7.39238,0 5.0491,8.74527 z m -16.85258,-4.68077 7.20531,-7.07504 7.12273,1.9783 2.52454,9.77751 z m 0.638,-4.68075 -2.41718,4.18665 -15.07338,-4.18665 z m -34.98107,0 -15.07338,4.18661 -2.41714,-4.18661 z m 69.96212,-29.77668 11.24126,6.49014 0,16.7964 -11.24126,6.49014 z m -18.76643,220.22949 -2.52454,9.7775 -7.12277,1.9783 -7.20529,-7.075 z m 17.49053,0 -5.04908,8.7453 -7.39237,0 -5.04908,-8.7453 z m -85.53877,4.6808 -7.20532,7.0751 -7.12273,-1.9783 -2.52454,-9.7776 z m -0.63797,4.6808 2.41714,-4.1866 15.07338,4.1866 z m 34.98105,0 15.0734,-4.1866 2.41714,4.1866 z m 52.47159,0 11.24126,6.4901 0,16.7964 -11.24126,6.4902 z m -103.66726,-150.49 2.5245,-9.7775 7.12277,-1.97834 7.20529,7.07506 z m 84.90083,-3e-5 5.04908,-8.74525 7.39239,0 5.04906,8.74528 z m -16.8526,-4.68075 7.20529,-7.07506 7.12277,1.9783 2.52454,9.77751 z m -16.85258,-4.68074 14.5972,-4.05434 2.25538,8.73508 z m -34.34309,4.68074 2.25538,-8.73511 14.5972,4.05437 z m 85.53877,-35.28211 10.61994,6.13139 0,8.97705 -10.61994,6.13141 z m -102.39133,79.92577 2.52454,-9.77754 7.12273,-1.9783 7.20532,7.07507 z m 102.39136,-18.72304 -5.04908,8.74527 -7.39237,0 -5.04908,-8.74527 z m -17.49053,0 -2.52454,9.77751 -7.12277,1.97831 -7.20529,-7.07507 z m -16.8526,4.68075 -2.25538,8.73509 -14.59718,-4.05434 z m -34.34309,4.68075 -14.59715,4.05431 -2.2554,-8.73506 z m 68.68622,-30.60134 10.61993,6.13143 0,8.977 -10.61993,6.13141 z m -85.53877,65.88347 -7.20529,7.07509 -7.12273,-1.97835 -2.52454,-9.77749 z m 85.53874,-4.68075 -5.0491,8.74525 -7.39234,0 -5.0491,-8.74525 z m -34.3431,14.04227 7.20529,-7.07509 7.12273,1.97832 2.52454,9.77749 z m 0,-9.36154 -2.25538,8.73508 -14.59718,-4.05431 z m -51.19564,9.36154 2.2554,-8.73514 14.59715,4.05437 z m 85.53874,-35.28214 10.61994,6.13141 0,8.97703 -10.61994,6.13143 z m -102.3913,79.92572 2.52454,-9.77751 7.12273,-1.97828 7.20529,7.07507 z m 84.9008,-4e-5 5.04908,-8.74525 7.39237,0 5.04908,8.74525 z m -16.8526,-4.68073 7.20529,-7.07507 7.12273,1.97831 2.52458,9.77749 z m -16.85256,-4.68072 14.59718,-4.05432 2.25538,8.73504 z m -34.34308,4.68077 2.2554,-8.73509 14.59715,4.05432 z m 85.53874,-35.28214 10.61994,6.13144 0,8.977 -10.61994,6.13141 z m 3e-5,39.96282 10.61997,6.13143 -4e-5,8.97704 -10.61993,6.1314 z"
       class="sticker"
       inkscape:connector-curvature="0"
       style="fill:#e5e5e5;fill-opacity:1;stroke:none" />
    <path
       id="path3129"
       d="m 373.53791,848.78926 -16.85258,4.68077 -16.85256,4.68075 14.5972,-4.05434 2.25538,8.73508 7.20529,-7.07506 7.12277,1.9783 2.52454,9.77751 5.04908,-8.74525 7.39239,0 5.04906,8.74528 10.61993,6.13143 0,8.977 -10.61993,6.13141 -5.04908,8.74527 -7.39237,0 -5.04908,-8.74527 -2.52454,9.77751 -7.12277,1.97831 -7.20529,-7.07507 -2.25538,8.73509 -14.59718,-4.05434 16.85256,4.68077 16.85256,4.68074 17.49054,0 10.61994,6.13141 0,8.97703 -10.61994,6.13143 -5.0491,8.74525 -7.39234,0 -5.0491,-8.74525 -16.85256,4.68073 -2.25538,8.73508 -14.59718,-4.05431 16.85256,4.68077 7.20529,-7.07509 7.12273,1.97832 2.52454,9.77749 17.49054,0 10.61994,6.13144 0,8.977 -10.61994,6.13141 -17.49054,0 -16.85256,4.68077 -16.85256,4.68075 14.59718,-4.05432 2.25538,8.73504 7.20529,-7.07507 7.12273,1.97831 2.52458,9.77749 5.04908,-8.74525 7.39237,0 5.04908,8.74525 10.61997,6.13143 -4e-5,8.97704 -10.61993,6.1314 -5.04908,8.7453 -7.39237,0 -5.04908,-8.7453 -2.52454,9.7775 -7.12277,1.9783 -7.20529,-7.075 -16.85256,4.6808 15.0734,-4.1866 2.41714,4.1866 17.49053,0 17.49052,0 11.24126,6.4901 0,16.7964 -11.24126,6.4902 -17.49052,0 -17.49053,0 -17.49056,0 -17.49051,0 -17.49056,0 -17.49053,-10e-5 0,-29.7766 17.49057,0 2.41714,-4.1866 15.07338,4.1866 -16.85255,-4.6808 -7.20532,7.0751 -7.12273,-1.9783 -2.52454,-9.7776 3e-5,-21.23983 2.52454,-9.77751 7.12273,-1.97828 7.20529,7.07507 2.2554,-8.73509 14.59715,4.05432 -16.85255,-4.68075 -16.85256,-4.68077 0,-21.23985 16.85256,-4.68072 2.2554,-8.73514 14.59715,4.05437 -16.85255,-4.68075 -7.20529,7.07509 -7.12273,-1.97835 -2.52454,-9.77749 -3e-5,-21.23984 2.52454,-9.77754 7.12273,-1.9783 7.20532,7.07507 16.85255,-4.68077 -14.59715,4.05431 -2.2554,-8.73506 -16.85256,-4.68073 -3e-5,-21.23986 2.5245,-9.7775 7.12277,-1.97834 7.20529,7.07506 2.25538,-8.73511 14.5972,4.05437 -16.85255,-4.68077 -16.85259,-4.68078 3e-5,-21.23984 2.52454,-9.77751 7.1227,-1.97828 7.20532,7.07504 16.85255,-4.68075 -15.07338,4.18661 -2.41714,-4.18661 -17.49055,0 0,-29.7767 17.49055,2e-5 17.49052,0 17.49053,0 17.49054,0 17.49051,0 17.49054,0 11.24126,6.49014 0,16.7964 -11.24126,6.49014 -17.49054,0 -17.49051,0 -2.41718,4.18665 -15.07338,-4.18665 16.85256,4.68075 7.20531,-7.07504 7.12273,1.9783 2.52454,9.77751 5.04906,-8.74527 7.39238,0 5.0491,8.74527 10.61994,6.13139 0,8.97705 -10.61994,6.13141 z"
       class="outer"
       inkscape:connector-curvature="0"
       style="fill:none;stroke:#000000;stroke-width:0.67447561;stroke-linecap:butt;stroke-linejoin:bevel;stroke-opacity:1;stroke-dasharray:none;stroke-dashoffset:0" />
    <path
       id="path3133"
       d="m 68.086376,575.62942 -4.300158,-8.53692 3.838203,-5.85094 9.543286,0.54439 z m -3.092359,16.26498 -7.239774,-6.24147 1.306949,-6.87439 9.025189,-3.14912 z m 3.367385,16.21028 -9.077215,-2.99583 -1.423207,-6.85126 7.133037,-6.36319 z m 9.314446,13.68771 -9.532697,0.70592 -3.936755,-5.78511 4.155006,-8.60852 z"
       class="sticker"
       inkscape:connector-curvature="0"
       style="fill:#e5e5e5;fill-opacity:1;stroke:none" />
    <path
       id="path3137"
       d="m 104.08982,591.56335 -4.407322,-10.3905 -10.46369,-4.23077 -10.390506,4.40734 -4.230744,10.46367 4.40732,10.3905 10.463695,4.23075 10.390503,-4.40734 z m 149.35111,-17.50354 12.3802,16.13396 -12.07553,19.84631 -9.52189,0.0806 -13.46074,-8.57957 -13.33293,6.51235 -13.48934,-11.96017 -13.31353,8.80631 -13.41269,-2.90502 -13.31349,8.8063 -17.10772,0.14486 -9.11099,10.3385 -13.68771,9.31445 -16.21028,3.36736 -16.264996,-3.09237 -13.843446,-9.08131 -9.532697,0.70592 -3.936755,-5.78511 4.155006,-8.60852 -9.077215,-2.99583 -1.423207,-6.85126 7.133037,-6.36319 -7.239774,-6.24147 1.306949,-6.87439 9.025189,-3.14912 -4.300159,-8.53692 3.838203,-5.85094 9.543286,0.54439 13.687706,-9.31446 16.210253,-3.36737 16.26496,3.09235 13.84352,9.08132 9.31444,13.6877 z"
       class="outer"
       inkscape:connector-curvature="0"
       style="fill:none;stroke:#000000;stroke-width:0.67447561;stroke-linecap:butt;stroke-linejoin:bevel;stroke-opacity:1;stroke-dasharray:none;stroke-dashoffset:0" />
    <path
       id="path3141"
       d="m 15.735574,740.65238 -8.2781513,-4.7794 0,-6.9975 8.2781533,-4.7794 z m -2e-6,16.55638 -8.2781853,-4.7794 2.3e-6,-6.99758 8.278185,-4.7794 z m -5e-6,82.78165 -8.2781601,-4.7794 0,-6.99753 8.2781601,-4.7794 z m -2e-6,16.55635 -8.278167,-4.7794 -2.3e-6,-6.99755 8.2781713,-4.7794 z m 0,16.55631 -8.2781625,-4.7794 0,-6.99753 8.2781625,-4.77938 z m -2e-6,16.55635 -8.2781763,-4.7794 0,-6.99755 8.2781783,-4.7794 z m -2e-6,13.78023 -6.8901058,-3.97801 0,-5.82421 6.8901078,-3.97801 z m 1.8e-5,-212.45628 -8.2781518,-4.7794 0,-6.99751 8.2781538,-4.7794 z m 0,16.5564 -8.2782035,-4.77943 0,-6.99755 8.2782035,-4.77942 z m -3e-6,16.55631 -8.2781511,-4.77941 0,-6.9975 8.2781541,-4.7794 z m -2.7e-5,323.68292 -11.2412595,-6.4902 0,-10.251 11.2412595,-6.4902 z m 4.1e-5,-480.30809 -10.1682953,-5.87068 2.3e-6,-8.59523 10.168295,-5.87068 z m -9e-6,106.95615 -11.2412578,-6.49016 6.8e-6,-93.97584 11.24126,-6.49015 z m -2.3e-5,246.12087 -8.5541442,-4.93873 0,-7.23081 8.5541472,-4.93874 z m -6e-6,94.47747 -7.9812364,-4.608 0,-6.7465 7.9812364,-4.60796 z m -2e-6,9.5222 -4.761117,-2.7488 0,-4.0246 4.761119,-2.7488 z m 8e-6,-88.03719 -7.9812357,-4.60798 0,-6.74653 7.9812357,-4.60797 z m -2e-6,13.72369 -6.8618402,-3.96169 2.2e-6,-5.80031 6.86184,-3.96169 z m 0,15.96245 -7.9812292,-4.60797 0,-6.74651 7.9812292,-4.60797 z m -2e-6,18.02799 -9.0139954,-5.20423 0,-7.61953 9.0139974,-5.20423 z m -2e-6,14.8384 -7.4191959,-4.28348 0,-6.27144 7.4191979,-4.28348 z m 16.35919,-274.96686 8.278153,4.7794 0,6.9975 -8.278153,4.7794 z m 0,16.5563 8.278183,4.7794 0,6.99758 -8.278188,4.7794 z m -7e-6,82.7817 8.27816,4.7794 0,6.99753 -8.27816,4.7794 z m 0,16.55633 8.278165,4.7794 4e-6,6.99755 -8.278169,4.7794 z m 0,16.55635 8.278156,4.77938 0,6.99753 -8.278161,4.7794 z m -5e-6,16.55631 8.278179,4.7794 0,6.99755 -8.278179,4.7794 z m 0,16.55635 6.890106,3.97801 0,5.82421 -6.89011,3.97801 z m 1.8e-5,-215.23236 8.278152,4.7794 0,6.99751 -8.278154,4.7794 z m -2e-6,16.55631 8.278203,4.77942 0,6.99755 -8.278203,4.77943 z m 0,16.5564 8.278154,4.7794 0,6.9975 -8.278158,4.77941 z m -2.9e-5,317.00783 11.241262,6.4902 -4e-6,10.251 -11.24126,6.4902 z m 4.3e-5,-477.41328 10.16829,5.87068 0,8.59523 -10.168295,5.87068 z m -5e-6,20.33659 11.241258,6.49015 -5e-6,93.97584 -11.24126,6.49016 z m -2.9e-5,335.96874 8.554151,4.93874 0,7.23083 -8.554151,4.93873 z m -9e-6,95.62329 7.981238,4.60796 -4e-6,6.7465 -7.981234,4.608 z m 0,15.96246 4.761116,2.7488 0,4.0246 -4.761116,2.7488 z m 9e-6,-94.47745 7.981232,4.60798 0,6.74653 -7.981234,4.60797 z m -2e-6,15.96248 6.861836,3.96169 0,5.80029 -6.861839,3.96169 z m -3e-6,13.72367 7.98123,4.60797 0,6.74651 -7.98123,4.60797 z m 0,15.96245 9.013998,5.20423 0,7.61953 -9.013998,5.20423 z m 0,18.02799 7.419194,4.28348 0,6.27146 -7.419198,4.28346 z m -16.359129,-437.09022 4.722485,-8.17958 6.914198,0 4.722485,8.17958 z"
       class="sticker"
       inkscape:connector-curvature="0"
       style="fill:#e5e5e5;fill-opacity:1;stroke:none" />
    <path
       id="path3147"
       d="m 40.372925,745.43178 0,6.99758 -8.278188,4.7794 0,16.55631 0,16.55635 0,16.55633 -2e-6,16.55633 8.27816,4.7794 0,6.99753 -8.27816,4.7794 8.278165,4.7794 4e-6,6.99755 -8.278169,4.7794 8.278156,4.77938 0,6.99753 -8.278161,4.7794 8.278179,4.7794 0,6.99755 -8.278179,4.7794 6.890106,3.97801 0,5.82421 -6.89011,3.97801 8.554151,4.93874 0,7.23083 -8.554151,4.93873 7.981232,4.60798 0,6.74653 -7.981234,4.60797 6.861836,3.96169 0,5.80029 -6.861839,3.96169 7.98123,4.60797 0,6.74651 -7.98123,4.60797 9.013998,5.20423 0,7.61953 -9.013998,5.20423 7.419194,4.28348 0,6.27146 -7.419198,4.28346 7.981238,4.60796 -4e-6,6.7465 -7.981234,4.608 4.761116,2.7488 0,4.0246 -4.761116,2.7488 11.241262,6.4902 -4e-6,10.251 -11.24126,6.4902 -16.359166,0 -11.2412595,-6.4902 0,-10.251 11.2412595,-6.4902 -4.761116,-2.7488 0,-4.0246 4.761119,-2.7488 -7.9812364,-4.608 0,-6.7465 7.9812364,-4.60796 -7.4191959,-4.28348 0,-6.27144 7.4191979,-4.28348 -9.0139954,-5.20423 0,-7.61953 9.0139974,-5.20423 -7.9812292,-4.60797 0,-6.74651 7.9812292,-4.60797 -6.8618402,-3.96169 2.2e-6,-5.80031 6.86184,-3.96169 -7.9812357,-4.60798 0,-6.74653 7.9812357,-4.60797 -8.5541442,-4.93873 0,-7.23081 8.5541472,-4.93874 -6.8901058,-3.97801 0,-5.82421 6.8901078,-3.97801 -8.2781763,-4.7794 0,-6.99755 8.2781783,-4.7794 -8.2781625,-4.7794 0,-6.99753 8.2781625,-4.77938 -8.278167,-4.7794 -2.3e-6,-6.99755 8.2781713,-4.7794 -8.2781601,-4.7794 0,-6.99753 8.2781601,-4.7794 3e-6,-16.55633 2e-6,-16.55633 0,-16.55635 0,-16.55631 -8.2781853,-4.7794 2.3e-6,-6.99758 8.278185,-4.7794 -8.2781513,-4.7794 0,-6.9975 8.2781533,-4.7794 -8.2781511,-4.77941 0,-6.9975 8.2781541,-4.7794 -8.2782035,-4.77943 0,-6.99755 8.2782035,-4.77942 -8.2781518,-4.7794 0,-6.99751 8.2781538,-4.7794 -11.2412578,-6.49016 6.8e-6,-93.97584 11.24126,-6.49015 -10.1682953,-5.87068 2.3e-6,-8.59523 10.168295,-5.87068 4.722485,-8.17958 6.914198,0 4.722485,8.17958 10.16829,5.87068 0,8.59523 -10.168295,5.87068 11.241258,6.49015 -5e-6,93.97584 -11.24126,6.49016 8.278152,4.7794 0,6.99751 -8.278154,4.7794 8.278203,4.77942 0,6.99755 -8.278203,4.77943 8.278154,4.7794 0,6.9975 -8.278158,4.77941 8.278153,4.7794 0,6.9975 -8.278153,4.7794 z"
       class="outer"
       inkscape:connector-curvature="0"
       style="fill:none;stroke:#000000;stroke-width:0.67447561;stroke-linecap:butt;stroke-linejoin:bevel;stroke-opacity:1;stroke-dasharray:none;stroke-dashoffset:0" />
    <path
       id="path3151"
       d="m 220.44755,848.48138 -8.25535,-3.13256 4e-5,-47.72285 z m 55.67238,-50.85537 10.05605,8.20749 -6.17547,38.04283 -12.13595,4.60507 z m -8.25537,50.85539 -6.49015,11.24126 -34.43672,-2e-5 -6.49014,-11.24126 z m -149.35963,-50.85548 2e-5,47.72286 -8.25536,3.13256 z m -8.25534,50.85542 -6.49014,11.24126 -34.436742,0 -6.490157,-11.24124 z m -47.417039,2e-5 -12.135925,-4.6051 -6.175463,-38.04283 10.056099,-8.20749 z m 55.672419,-197.96617 6.49014,-11.24128 80.70704,2e-5 6.49012,11.24126 z m 93.6873,98.93813 0,-47.72288 8.25532,-3.13253 z m 55.67233,-50.85544 12.13595,4.60508 6.17543,38.0428 -10.05605,8.20752 z m -47.41701,3e-5 6.49012,-11.24129 34.43673,0 6.49016,11.24126 z m -110.19793,-3e-5 8.25539,3.13256 -1e-4,47.72284 z m -47.417026,-6e-5 6.490157,-11.24126 34.436729,4e-5 6.49014,11.24128 z m -8.255339,50.85539 -10.05608,-8.20747 6.175476,-38.04285 12.135943,-4.60507 z m 221.542635,7e-5 11.24124,6.49014 0,35.19245 -11.24124,6.49014 z m -221.542668,48.17266 -11.241249,-6.49014 1.6e-5,-35.19245 11.241266,-6.49014 z m 172.088278,-73.60035 10.09818,0 3.69617,6.40195 -5.04905,8.74529 z m 8.7453,15.14724 5.04908,-8.74529 7.39236,4e-5 5.04908,8.74525 z m 17.49052,0 -5.04908,-8.74525 3.69619,-6.40199 10.09814,0 z m 8.74525,-15.14724 -10.09818,0 -3.69615,-6.40199 5.04908,-8.74527 z m -8.74525,-15.14726 -5.04908,8.74525 -7.39236,2e-5 -5.04908,-8.74527 z m -17.49052,0 5.04908,8.74527 -3.6962,6.40199 -10.09818,0 z m 26.23577,114.17537 -10.09818,-3e-5 -3.69619,-6.40198 5.0491,-8.74525 z m -8.74527,-15.14726 -5.0491,8.74525 -7.39235,2e-5 -5.0491,-8.74525 z m -17.49055,2e-5 5.0491,8.74525 -3.69619,6.40196 -10.09816,0 z m -8.74525,15.14721 10.09816,0 3.69619,6.40199 -5.0491,8.74527 z m 8.74525,15.14726 5.0491,-8.74527 7.39235,0 5.0491,8.74527 z m 17.49055,0 -5.0491,-8.74527 3.69619,-6.40199 10.09818,3e-5 z"
       class="sticker"
       inkscape:connector-curvature="0"
       style="fill:#e5e5e5;fill-opacity:1;stroke:none" />
    <path
       id="path3157"
       d="m 212.19227,701.73044 8.25532,-3.13253 6.49012,-11.24129 34.43673,0 6.49016,11.24126 12.13595,4.60508 6.17543,38.0428 -10.05605,8.20752 11.24124,6.49014 0,35.19245 -11.24124,6.49014 10.05605,8.20749 -6.17547,38.04283 -12.13595,4.60507 -6.49015,11.24126 -34.43672,-2e-5 -6.49014,-11.24126 -8.25535,-3.13256 4e-5,-47.72285 0,51.5211 0,47.417 -4e-5,51.52104 0,48.17277 -3e-5,51.52112 -93.68729,-10e-5 2e-5,-51.52108 2e-5,-48.17271 1e-5,-51.52108 0,-47.41703 0,-51.52108 2e-5,47.72286 -8.25536,3.13256 -6.49014,11.24126 -34.436742,0 -6.490157,-11.24124 -12.135925,-4.6051 -6.175463,-38.04283 10.056099,-8.20749 -11.241249,-6.49014 1.6e-5,-35.19245 11.241266,-6.49014 -10.05608,-8.20747 6.175476,-38.04285 12.135943,-4.60507 6.490157,-11.24126 34.436729,4e-5 6.49014,11.24128 8.25539,3.13256 -1e-4,47.72284 0,-51.52108 2e-5,-47.41701 6.49014,-11.24128 80.70704,2e-5 6.49012,11.24126 0,47.41701 0,51.52112 z m 24.57145,22.29515 3.69617,6.40195 -5.04905,8.74529 5.04908,-8.74529 7.39236,4e-5 5.04908,8.74525 -5.04908,-8.74525 3.69619,-6.40199 10.09814,0 -10.09818,0 -3.69615,-6.40199 5.04908,-8.74527 -5.04908,8.74525 -7.39236,2e-5 -5.04908,-8.74527 5.04908,8.74527 -3.6962,6.40199 -10.09818,0 z m -2e-5,99.02808 3.69619,6.40199 -5.0491,8.74527 5.0491,-8.74527 7.39235,0 5.0491,8.74527 -5.0491,-8.74527 3.69619,-6.40199 10.09818,3e-5 -10.09818,-3e-5 -3.69619,-6.40198 5.0491,-8.74525 -5.0491,8.74525 -7.39235,2e-5 -5.0491,-8.74525 5.0491,8.74525 -3.69619,6.40196 -10.09816,0 z"
       class="outer"
       inkscape:connector-curvature="0"
       style="fill:none;stroke:#000000;stroke-width:0.67447561;stroke-linecap:butt;stroke-linejoin:bevel;stroke-opacity:1;stroke-dasharray:none;stroke-dashoffset:0" />
    <path
       id="path3161"
       d="m 324.52355,589.8964 -0.56691,-9.54199 5.84187,-3.85201 8.54703,4.28003 z m 13.82199,-9.11397 3.12779,-9.03261 6.8713,-1.32327 6.25855,7.22506 z m 16.25766,-3.13075 6.34634,-7.1481 6.8546,1.40706 3.01725,9.07013 z m 16.21819,3.32909 8.59868,-4.17533 5.79439,3.92307 -0.68341,9.53435 z"
       class="sticker"
       inkscape:connector-curvature="0"
       style="fill:#e5e5e5;fill-opacity:1;stroke:none" />
    <path
       id="path3165"
       d="m 367.90501,703.25373 -8.77488,13.33429 11.99199,13.46106 -6.48079,13.34826 8.61129,13.44046 -0.0582,9.52202 -19.81773,12.12238 -16.16314,-12.34209 0.65317,-106.95412 -13.70967,-9.28213 -9.11396,-13.822 -3.13076,-16.25761 3.3291,-16.2182 9.28209,-13.70965 -0.56691,-9.54199 5.84187,-3.85201 8.54703,4.28003 3.12779,-9.03261 6.8713,-1.32327 6.25855,7.22506 6.34635,-7.14809 6.8546,1.40706 3.01725,9.07012 8.59868,-4.17533 5.79439,3.92308 -0.68341,9.53434 9.11397,13.822 3.13075,16.25765 -3.3291,16.21816 -9.28209,13.70966 -10.31694,9.13538 -0.10449,17.10802 -8.77484,13.33424 z m -2.95959,-111.61555 -10.40089,-4.3828 -10.45363,4.25544 -4.38277,10.40087 4.25541,10.45365 10.40091,4.38277 10.45363,-4.25541 4.38278,-10.40088 z"
       class="outer"
       inkscape:connector-curvature="0"
       style="fill:none;stroke:#000000;stroke-width:0.67447561;stroke-linecap:butt;stroke-linejoin:bevel;stroke-opacity:1;stroke-dasharray:none;stroke-dashoffset:0" />
    <path
       id="path3169"
       d="m 301.06152,769.17117 -5.6433,-3.25816 0,-4.77029 5.6433,-3.25816 z m 0,-11.28661 -5.6433,-3.25816 0,-4.77029 5.6433,-3.25816 z m 0,-11.28661 -5.64329,-3.25813 0,-4.77029 5.64329,-3.25816 z m 0,-11.28658 -5.6433,-3.25816 0,-4.77026 5.6433,-3.25816 z m 0,-11.28658 -5.6433,-3.25816 0,-4.77029 5.6433,-3.25816 z m 0,-11.28661 -5.6433,-3.25816 0,-4.77029 5.6433,-3.25816 z m 0,-11.28661 -5.6433,-3.25816 0,-4.77029 5.64331,-3.25816 z m 1e-5,-11.28661 -5.64331,-3.25816 0,-4.77029 5.64331,-3.25816 z m 16.35916,67.7196 5.6433,3.25816 -10e-6,4.77029 -5.6433,3.25816 z m 0,-11.28661 5.6433,3.25816 0,4.77029 -5.6433,3.25816 z m 0,-11.28658 5.64329,3.25816 0,4.77029 -5.64329,3.25813 z m 0,-11.28658 5.6433,3.25816 0,4.77026 -5.6433,3.25816 z m 0,-11.28661 5.6433,3.25816 0,4.77029 -5.6433,3.25816 z m 0,-11.28661 5.6433,3.25816 0,4.77029 -5.6433,3.25816 z m 0,-11.28661 5.6433,3.25816 0,4.77029 -5.6433,3.25816 z m 0,-11.28661 5.6433,3.25816 0,4.77029 -5.6433,3.25816 z m -10e-6,90.29282 -4.72248,8.17957 -6.9142,0 -4.72248,-8.17957 z"
       class="sticker"
       inkscape:connector-curvature="0"
       style="fill:#e5e5e5;fill-opacity:1;stroke:none" />
    <path
       id="path3175"
       d="m 323.06399,727.28295 0,4.77026 -5.6433,3.25816 5.64329,3.25816 0,4.77029 -5.64329,3.25813 5.6433,3.25816 0,4.77029 -5.6433,3.25816 5.6433,3.25816 -10e-6,4.77029 -5.6433,3.25816 -4.72248,8.17957 -6.9142,0 -4.72248,-8.17957 -5.6433,-3.25816 0,-4.77029 5.6433,-3.25816 -5.6433,-3.25816 0,-4.77029 5.6433,-3.25816 -5.64329,-3.25813 0,-4.77029 5.64329,-3.25816 -5.6433,-3.25816 0,-4.77026 5.6433,-3.25816 -5.6433,-3.25816 0,-4.77029 5.6433,-3.25816 -5.6433,-3.25816 0,-4.77029 5.6433,-3.25816 -5.6433,-3.25816 0,-4.77029 5.64331,-3.25816 -5.64331,-3.25816 0,-4.77029 5.64331,-3.25816 16.35916,0 5.6433,3.25816 0,4.77029 -5.6433,3.25816 5.6433,3.25816 0,4.77029 -5.6433,3.25816 5.6433,3.25816 0,4.77029 -5.6433,3.25816 5.6433,3.25816 0,4.77029 -5.6433,3.25816 z"
       class="outer"
       inkscape:connector-curvature="0"
       style="fill:none;stroke:#000000;stroke-width:0.67447561;stroke-linecap:butt;stroke-linejoin:bevel;stroke-opacity:1;stroke-dasharray:none;stroke-dashoffset:0" />
  </g>
  <style
     id="style3117"
     type="text/css">
    path {
        fill: none;
        stroke-linecap: butt;
        stroke-linejoin: bevel;
        stroke-dasharray: none;
    }
    path.outer {
        stroke: #000000;
        stroke-dasharray: none;
        stroke-dashoffset: 0;
        stroke-width: 0.3;
        stroke-opacity: 1.0;
    }
    path.convex {
        stroke: #000000;
        stroke-dasharray: 0.50,1.00;
        stroke-dashoffset:0;
        stroke-width:0.2;
        stroke-opacity: 1.0
    }
    path.concave {
        stroke: #000000;
        stroke-dasharray: 1.00,0.50,0.20,0.50;
        stroke-dashoffset: 0;
        stroke-width: 0.2;
        stroke-opacity: 1.0
    }
    path.freestyle {
        stroke: #000000;
        stroke-dasharray: none;
        stroke-dashoffset: 0;
        stroke-width: 0.2;
        stroke-opacity: 1.0
    }
    path.outer_background {
        stroke: #ffffff;
        stroke-opacity: 1.0;
        stroke-width: 0.5
    }
    path.inner_background {
        stroke: #ffffff;
        stroke-opacity: 1.0;
        stroke-width: 0.2
    }
    path.sticker {
        fill: #e5e5e5;
        stroke: none;
        fill-opacity: 1.0;
    }
    path.arrow {
        fill: #000;
    }
    text {
        font-style: normal;
        fill: #000000;
        fill-opacity: 1.0;
        stroke: none;
    }
    text, tspan {
        text-anchor:middle;
    }
    </style>
</svg>
