<?xml version="1.0" encoding="UTF-8" standalone="no"?>
<!-- Created with Inkscape (http://www.inkscape.org/) -->

<svg
   xmlns:dc="http://purl.org/dc/elements/1.1/"
   xmlns:cc="http://creativecommons.org/ns#"
   xmlns:rdf="http://www.w3.org/1999/02/22-rdf-syntax-ns#"
   xmlns:svg="http://www.w3.org/2000/svg"
   xmlns="http://www.w3.org/2000/svg"
   xmlns:sodipodi="http://sodipodi.sourceforge.net/DTD/sodipodi-0.dtd"
   xmlns:inkscape="http://www.inkscape.org/namespaces/inkscape"
   width="400"
   height="600"
   id="svg2"
   version="1.1"
   inkscape:version="0.48.4 r9939"
   sodipodi:docname="Neues Dokument 1">
  <defs
     id="defs4" />
  <sodipodi:namedview
     id="base"
     pagecolor="#ffffff"
     bordercolor="#666666"
     borderopacity="1.0"
     inkscape:pageopacity="0.0"
     inkscape:pageshadow="2"
     inkscape:zoom="2.8"
     inkscape:cx="307.44506"
     inkscape:cy="214.38116"
     inkscape:document-units="px"
     inkscape:current-layer="layer1"
     showgrid="false"
     width="400px"
     inkscape:window-width="1024"
     inkscape:window-height="560"
     inkscape:window-x="0"
     inkscape:window-y="0"
     inkscape:window-maximized="1" />
  <metadata
     id="metadata7">
    <rdf:RDF>
      <cc:Work
         rdf:about="">
        <dc:format>image/svg+xml</dc:format>
        <dc:type
           rdf:resource="http://purl.org/dc/dcmitype/StillImage" />
        <dc:title></dc:title>
      </cc:Work>
    </rdf:RDF>
  </metadata>
  <g
     inkscape:label="Ebene 1"
     inkscape:groupmode="layer"
     id="layer1"
     transform="translate(0,-452.36218)">
    <g
       id="g3121"
       transform="matrix(2.248252,0,0,2.248252,-6.7469705,391.2894)">
      <path
         style="fill:#e5e5e5;fill-opacity:1;stroke:none"
         inkscape:connector-curvature="0"
         class="sticker"
         d="m 131.3839,194.04408 1.12289,-4.34894 3.16811,-0.87992 3.20485,3.14691 z m 37.76301,1e-5 2.24577,-3.88981 3.28806,0 2.24579,3.88981 z m -7.49586,-2.08196 3.20485,-3.14691 3.16812,0.87993 1.12289,4.34894 z m 0.28378,-2.08195 -1.07514,1.86218 -6.70449,-1.86218 z m -15.55923,0 -6.70449,1.86216 -1.07512,-1.86216 z m 31.11845,-13.24437 5,2.88675 0,7.47087 -5,2.88675 z m -8.34712,97.95589 -1.12289,4.34893 -3.16814,0.87993 -3.20484,-3.14691 z m 7.77961,0 -2.24578,3.8898 -3.28805,0 -2.24578,-3.8898 z m -38.04679,2.08196 -3.20485,3.14693 -3.16812,-0.87995 -1.12289,-4.34894 z m -0.28376,2.08195 1.07512,-1.86215 6.70449,1.86215 z m 15.55922,0 6.7045,-1.86215 1.07512,1.86215 z m 23.33884,0 5,2.88675 0,7.47088 -5,2.88675 z m -46.11016,-66.93643 1.12287,-4.34893 3.16814,-0.87995 3.20484,3.14692 z m 37.76304,-10e-6 2.24578,-3.8898 3.28806,0 2.24577,3.88981 z m -7.49587,-2.08195 3.20484,-3.14692 3.16814,0.87993 1.12289,4.34894 z m -7.49586,-2.08195 6.49269,-1.80333 1.00317,3.88528 z m -15.27546,2.08195 1.00317,-3.88529 6.49269,1.80334 z m 38.04679,-15.69313 4.72364,2.72718 0,3.9929 -4.72364,2.72719 z m -45.54264,35.55018 1.12289,-4.34895 3.16812,-0.87993 3.20485,3.14692 z m 45.54265,-8.32782 -2.24578,3.88981 -3.28805,0 -2.24578,-3.88981 z m -7.77961,0 -1.12289,4.34894 -3.16814,0.87993 -3.20484,-3.14692 z m -7.49587,2.08195 -1.00317,3.88528 -6.49268,-1.80333 z m -15.27546,2.08195 -6.49267,1.80332 -1.00318,-3.88527 z m 30.55094,-13.61117 4.72364,2.7272 0,3.99288 -4.72364,2.72719 z m -38.04679,29.30431 -3.20484,3.14693 -3.16812,-0.87995 -1.12289,-4.34893 z m 38.04678,-2.08195 -2.24579,3.8898 -3.28804,0 -2.24579,-3.8898 z m -15.27547,6.24586 3.20484,-3.14693 3.16812,0.87994 1.12289,4.34893 z m 0,-4.16392 -1.00317,3.88528 -6.49268,-1.80332 z m -22.77131,4.16392 1.00318,-3.8853 6.49267,1.80334 z m 38.04678,-15.69314 4.72364,2.72719 0,3.99289 -4.72364,2.7272 z m -45.54263,35.55016 1.12289,-4.34894 3.16812,-0.87992 3.20484,3.14692 z m 37.76303,-2e-5 2.24578,-3.8898 3.28805,0 2.24578,3.8898 z m -7.49587,-2.08194 3.20484,-3.14692 3.16812,0.87993 1.12291,4.34893 z m -7.49585,-2.08194 6.49268,-1.80332 1.00317,3.88526 z m -15.27546,2.08196 1.00318,-3.88528 6.49267,1.80332 z m 38.04678,-15.69314 4.72364,2.7272 0,3.99288 -4.72364,2.72719 z m 10e-6,17.77506 4.72366,2.7272 -2e-5,3.9929 -4.72364,2.7272 z"
         id="path3123" />
      <path
         style="fill:none;stroke:#000000;stroke-width:0.2;stroke-linecap:butt;stroke-linejoin:bevel;stroke-opacity:1;stroke-dasharray:0.5, 1;stroke-dashoffset:0"
         inkscape:connector-curvature="0"
         class="convex"
         d="m 146.3756,189.88018 7.7796,0 m 0,0 1e-5,-13.24437 m 7.49585,82.26276 0,-13.61117 m 15.27547,-41.79604 0,-9.44727 m -30.55093,13.61118 -7.49586,2.08195 m 1e-5,13.61118 7.49585,2.08195 m 0,0 0,-17.77508 m 23.33883,-17.77509 0,-13.24437 m 7.2121,80.1808 0,-9.44727 m -15.27547,-37.63212 -7.49586,-2.08195 m -7.7796,53.32525 7.77961,0 m 0,-35.55017 7.49585,-2.08195 m -7.49585,37.63212 0,-17.77508 m 7.49585,-19.85704 0,-13.61118 m -23.05507,-19.85704 0,-13.24437 m 23.33884,102.1198 -7.77962,0 m 0,0 -1e-5,13.24438 m 14.99171,-35.18338 0,-9.44727 m 7.77963,-26.10289 0,-9.44727 m -30.55094,13.61117 7.77961,0 m -7.77961,53.32526 -7.77961,0 m 15.55922,-53.32526 -1e-5,-17.77508 m -15.55921,71.10034 -2e-5,13.24438 m 0.28378,-33.10142 0,-13.61117 m 7.49585,15.69312 0,17.77509 m 31.11845,13.24438 0,-13.24438 m -7.77961,0 0,13.24438 m -0.56751,-70.73354 0,-9.44728 m -7.49587,51.24329 0,13.61119 m -7.49585,2.08196 -7.77961,0 m 0,0 0,13.24438 m -7.49585,-68.65159 -1e-5,-13.61118 m 7.49586,33.46822 7.77961,0 m 0,0 0,-17.77509 m -7.77961,35.55017 -7.49585,2.08196 m 0,0 0,13.61118 m 23.05508,2.08195 0,13.24438 m 7.21208,-52.95845 0,-9.44728 m -7.49585,33.4682 -7.49585,-2.08194 m 0,0 0,17.77509 m -7.77961,-71.10034 7.7796,0 m 0,0 0,-17.77509 m -15.27545,51.24331 0,-13.61118 m 30.26718,37.63209 0,9.4473 m -22.77133,-31.38626 0,-17.77509 m 22.77131,-21.93899 0,-9.44727 m 7.77963,80.54761 0,-9.4473 m -22.77133,-21.93896 7.49585,-2.08196 m -23.05507,-51.2433 7.77961,0 m 15.27546,51.2433 0,-13.61117 m -15.27546,-37.63213 0,-13.24437 m -7.49585,28.9375 0,-13.61118 m 15.27545,-2.08195 7.77963,0 m -15.55923,17.77509 0,-17.77509 m 15.55923,0 0,-13.24437 m 14.9917,62.40573 0,-9.44728 m -30.55093,13.61118 -7.49585,2.08196 m 7.49585,15.69312 0,-17.77508 m 15.27545,-37.63212 0,-13.61119 m 15.843,-2.08195 0,-13.24437"
         id="path3125" />
      <path
         style="fill:none;stroke:#000000;stroke-width:0.2;stroke-linecap:butt;stroke-linejoin:bevel;stroke-opacity:1;stroke-dasharray:1, 0.5, 0.2, 0.5;stroke-dashoffset:0"
         inkscape:connector-curvature="0"
         class="concave"
         d="m 169.14691,247.36934 -7.49585,-2.08194 m 15.27548,-33.46822 -7.77961,-10e-6 m 0,9.44728 7.77961,0 m -7.77961,-9.44728 -7.49587,-2.08195 m 0,13.61118 7.49587,-2.08195 m 0,43.87795 -7.49587,-2.08194 m -22.77132,-53.32524 -7.49585,2.08196 m 30.26717,64.85447 7.49587,-2.08195 m -30.26718,-11.52922 -7.49585,2.08194 m -1e-5,9.44728 7.49586,2.08196 m 0,-49.16135 -7.49586,2.08196 m 1e-5,9.44727 7.49585,2.08195 m 30.26716,-47.0794 -7.49586,-2.08196 m 15.27549,73.18227 -7.77961,0 m 0,9.4473 7.77961,0 m -38.04679,-82.62957 -7.49585,2.08195 m 37.76301,44.99746 7.77962,0 m 0,-44.99745 -7.77962,0"
         id="path3127" />
      <path
         style="fill:none;stroke:#000000;stroke-width:0.30000001;stroke-linecap:butt;stroke-linejoin:bevel;stroke-opacity:1;stroke-dasharray:none;stroke-dashoffset:0"
         inkscape:connector-curvature="0"
         class="outer"
         d="m 169.14691,203.49136 -7.49586,2.08196 -7.49585,2.08195 6.49269,-1.80333 1.00317,3.88528 3.20484,-3.14692 3.16814,0.87993 1.12289,4.34894 2.24578,-3.8898 3.28806,0 2.24577,3.88981 4.72364,2.7272 0,3.99288 -4.72364,2.72719 -2.24578,3.88981 -3.28805,0 -2.24578,-3.88981 -1.12289,4.34894 -3.16814,0.87993 -3.20484,-3.14692 -1.00317,3.88528 -6.49268,-1.80333 7.49585,2.08196 7.49585,2.08195 7.77962,0 4.72364,2.72719 0,3.99289 -4.72364,2.7272 -2.24579,3.8898 -3.28804,0 -2.24579,-3.8898 -7.49585,2.08194 -1.00317,3.88528 -6.49268,-1.80332 7.49585,2.08196 3.20484,-3.14693 3.16812,0.87994 1.12289,4.34893 7.77962,0 4.72364,2.7272 0,3.99288 -4.72364,2.72719 -7.77962,0 -7.49585,2.08196 -7.49585,2.08195 6.49268,-1.80332 1.00317,3.88526 3.20484,-3.14692 3.16812,0.87993 1.12291,4.34893 2.24578,-3.8898 3.28805,0 2.24578,3.8898 4.72366,2.7272 -2e-5,3.9929 -4.72364,2.7272 -2.24578,3.8898 -3.28805,0 -2.24578,-3.8898 -1.12289,4.34893 -3.16814,0.87993 -3.20484,-3.14691 -7.49585,2.08196 6.7045,-1.86215 1.07512,1.86215 7.77961,0 7.77961,0 5,2.88675 0,7.47088 -5,2.88675 -7.77961,0 -7.77961,0 -7.77963,0 -7.7796,0 -7.77963,0 -7.77961,-1e-5 0,-13.24437 7.77963,0 1.07512,-1.86215 6.70449,1.86215 -7.49585,-2.08195 -3.20485,3.14693 -3.16812,-0.87995 -1.12289,-4.34894 1e-5,-9.44728 1.12289,-4.34894 3.16812,-0.87992 3.20484,3.14692 1.00318,-3.88528 6.49267,1.80332 -7.49585,-2.08195 -7.49585,-2.08196 0,-9.44727 7.49585,-2.08194 1.00318,-3.8853 6.49267,1.80334 -7.49585,-2.08195 -3.20484,3.14693 -3.16812,-0.87995 -1.12289,-4.34893 -1e-5,-9.44727 1.12289,-4.34895 3.16812,-0.87993 3.20485,3.14692 7.49585,-2.08196 -6.49267,1.80332 -1.00318,-3.88527 -7.49585,-2.08194 -1e-5,-9.44728 1.12287,-4.34893 3.16814,-0.87995 3.20484,3.14692 1.00317,-3.88529 6.49269,1.80334 -7.49585,-2.08196 -7.49586,-2.08196 1e-5,-9.44727 1.12289,-4.34894 3.16811,-0.87992 3.20485,3.14691 7.49585,-2.08195 -6.70449,1.86216 -1.07512,-1.86216 -7.77962,0 0,-13.24438 7.77962,1e-5 7.77961,0 7.77961,0 7.77962,0 7.7796,0 7.77962,0 5,2.88675 0,7.47087 -5,2.88675 -7.77962,0 -7.7796,0 -1.07514,1.86218 -6.70449,-1.86218 7.49585,2.08195 3.20485,-3.14691 3.16812,0.87993 1.12289,4.34894 2.24577,-3.88981 3.28806,0 2.24579,3.88981 4.72364,2.72718 0,3.9929 -4.72364,2.72719 z"
         id="path3129" />
    </g>
    <g
       id="g3131"
       transform="matrix(0.37785486,-2.2162723,2.2162723,0.37785486,1.2308233,666.6053)">
      <path
         style="fill:#e5e5e5;fill-opacity:1;stroke:none"
         inkscape:connector-curvature="0"
         class="sticker"
         d="m 44.887302,22.512878 3.421671,-2.523631 2.852343,1.245529 0.474703,4.225075 z m -7.362765,-0.140011 2.195452,-3.64095 3.111869,0.05916 2.055444,3.721803 z m -6.855884,2.688259 0.635001,-4.203975 2.897637,-1.136184 3.323246,2.6519 z m -5.305263,5.107254 -1.02213,-4.126966 2.242269,-2.158583 4.085124,1.178295 z"
         id="path3133" />
      <path
         style="fill:none;stroke:#000000;stroke-width:0.2;stroke-linecap:butt;stroke-linejoin:bevel;stroke-opacity:1;stroke-dasharray:0.5, 1;stroke-dashoffset:0"
         inkscape:connector-curvature="0"
         class="convex"
         d="m 51.636019,25.459851 -6.748717,-2.946973 m 0,0 -7.362765,-0.140011 m 0,0 -6.855884,2.688259 m 0,0 -5.305263,5.107254"
         id="path3135" />
      <path
         style="fill:none;stroke:#000000;stroke-width:0.30000001;stroke-linecap:butt;stroke-linejoin:bevel;stroke-opacity:1;stroke-dasharray:none;stroke-dashoffset:0"
         inkscape:connector-curvature="0"
         class="outer"
         d="m 40.592265,39.490188 4.226387,-2.70918 1.072831,-4.90421 -2.709191,-4.226387 -4.904196,-1.072824 -4.226386,2.70918 -1.072824,4.904211 2.709189,4.226386 z m 18.839263,64.176502 -6.148674,6.63434 -9.604573,-3.81108 -0.747148,-4.16897 2.755579,-6.543399 -3.852115,-5.359172 4.235708,-6.808654 -4.856482,-5.179182 0.271089,-6.098136 -4.856475,-5.179167 -1.34239,-7.490277 -5.214132,-3.221989 -5.107256,-5.30526 -2.688249,-6.85589 0.140015,-7.362768 2.946965,-6.748706 -1.02213,-4.126966 2.242269,-2.158583 4.085124,1.178295 0.635001,-4.203975 2.897637,-1.136184 3.323246,2.6519 2.195452,-3.64095 3.111869,0.05916 2.055444,3.721803 3.421671,-2.523631 2.852343,1.245529 0.474703,4.225075 5.107261,5.305261 2.688248,6.855875 -0.140008,7.362753 -2.946965,6.748736 -5.305257,5.107254 z"
         id="path3137" />
    </g>
    <g
       id="g3139"
       transform="matrix(2.248252,0,0,2.248252,-6.7469705,391.2894)">
      <path
         style="fill:#e5e5e5;fill-opacity:1;stroke:none"
         inkscape:connector-curvature="0"
         class="sticker"
         d="m 10.000011,155.39316 -3.682039,-2.12583 0,-3.11242 3.68204,-2.12583 z m -1e-6,7.36411 -3.682054,-2.12583 1e-6,-3.11245 3.682054,-2.12583 z m -2e-6,36.82045 -3.682043,-2.12583 0,-3.11243 3.682043,-2.12583 z m -10e-7,7.3641 -3.682046,-2.12583 -1e-6,-3.11244 3.682048,-2.12583 z m 0,7.36408 -3.682044,-2.12583 0,-3.11243 3.682044,-2.12582 z m -10e-7,7.3641 -3.68205,-2.12583 0,-3.11244 3.682051,-2.12583 z m -1e-6,6.12931 -3.06465,-1.76938 0,-2.59055 3.064651,-1.76938 z m 8e-6,-94.49843 -3.682039,-2.12583 0,-3.11242 3.68204,-2.12583 z m 0,7.36412 -3.682062,-2.12584 0,-3.11244 3.682062,-2.12584 z m -10e-7,7.36408 -3.682039,-2.12583 0,-3.11242 3.68204,-2.12583 z M 10,291.99999 l -5,-2.88675 0,-4.55956 5,-2.88675 z m 1.8e-5,-213.636218 -4.522756,-2.61122 1e-6,-3.823072 4.522756,-2.61122 z m -4e-6,47.573028 -4.999999,-2.88676 3e-6,-41.799511 5,-2.886757 z m -10e-6,109.4721 -3.804798,-2.1967 0,-3.21619 3.804799,-2.1967 z m -3e-6,42.02264 -3.549974,-2.04958 0,-3.00079 3.549974,-2.04958 z m -10e-7,4.23539 -2.117697,-1.22265 0,-1.79009 2.117698,-1.22265 z m 4e-6,-39.15808 -3.549974,-2.04958 0,-3.00079 3.549974,-2.04958 z m -1e-6,6.10416 -3.052078,-1.76212 1e-6,-2.57992 3.052078,-1.76212 z m 0,7.09994 -3.549971,-2.04958 0,-3.00078 3.549971,-2.04958 z m -10e-7,8.01867 -4.009335,-2.31479 0,-3.38909 4.009336,-2.31479 z m -1e-6,6.59997 -3.299984,-1.90525 0,-2.78947 3.299985,-1.90525 z m 7.276404,-122.30251 3.68204,2.12583 0,3.11242 -3.68204,2.12583 z m 0,7.36408 3.682053,2.12583 0,3.11245 -3.682055,2.12583 z m -3e-6,36.82047 3.682043,2.12583 0,3.11243 -3.682043,2.12583 z m 0,7.36409 3.682045,2.12583 2e-6,3.11244 -3.682047,2.12583 z m 0,7.3641 3.682041,2.12582 0,3.11243 -3.682043,2.12583 z m -2e-6,7.36408 3.682051,2.12583 0,3.11244 L 17.2764,221.67 z m 0,7.3641 3.06465,1.76938 0,2.59055 -3.064652,1.76938 z m 8e-6,-95.7332 3.682039,2.12583 0,3.11242 -3.68204,2.12583 z m -1e-6,7.36408 3.682062,2.12584 0,3.11244 -3.682062,2.12584 z m 0,7.36412 3.68204,2.12583 0,3.11242 -3.682042,2.12583 z m -1.3e-5,141.00193 5.000001,2.88675 -2e-6,4.55956 -5,2.88675 z m 1.9e-5,-212.34867 4.522754,2.61122 0,3.823072 -4.522756,2.61122 z m -2e-6,9.045512 4.999999,2.886757 -2e-6,41.799511 -5,2.88676 z m -1.3e-5,149.435538 3.804801,2.1967 0,3.2162 -3.804801,2.1967 z m -4e-6,42.53228 3.549975,2.04958 -2e-6,3.00079 -3.549973,2.04958 z m 0,7.09995 2.117697,1.22265 0,1.79009 -2.117697,1.22265 z m 4e-6,-42.02263 3.549972,2.04958 0,3.00079 -3.549973,2.04958 z m -1e-6,7.09995 3.052076,1.76212 0,2.57991 -3.052077,1.76212 z m -1e-6,6.10415 3.549971,2.04958 0,3.00078 -3.549971,2.04958 z m 0,7.09994 4.009336,2.31479 0,3.38909 -4.009336,2.31479 z m 0,8.01867 3.299983,1.90525 0,2.78948 -3.299985,1.90524 z m -7.276377,-194.41336 2.100514,-3.638193 3.075366,0 2.100514,3.638193 z"
         id="path3141" />
      <path
         style="fill:none;stroke:#000000;stroke-width:0.2;stroke-linecap:butt;stroke-linejoin:bevel;stroke-opacity:1;stroke-dasharray:0.5, 1;stroke-dashoffset:0"
         inkscape:connector-curvature="0"
         class="convex"
         d="m 17.276403,162.75727 2e-6,-7.36411 m -1.1e-5,114.93843 2e-6,-6.59997 m 9e-6,-108.33846 -7.276394,0 m 7.276385,108.33846 -7.276394,0 m 0,0 -1e-6,6.59997 m 1.3e-5,-144.39479 -1e-6,7.36408 m -1.2e-5,144.13066 -10e-7,4.23539 m 7.276407,-148.36605 1e-6,-7.36408 m -1.2e-5,137.79482 0,-8.01867 m 2e-6,-27.91364 2e-6,-6.12931 m -7.276387,-81.005 -10e-7,7.36408 m 0,0 -10e-7,7.36408 m -8e-6,100.31979 -10e-7,8.01867 m 7.276398,-49.42572 -7.276393,0 m 7.276398,-66.27682 2e-6,-7.36408 m -2e-6,14.72816 0,-7.36408 m 2e-6,-7.36408 -7.276394,0 m 7.276392,7.36408 -7.276393,0 m 7.276384,100.58393 -7.276393,0 m 7.276393,7.09994 0,-7.09994 m 4e-6,-26.94301 -7.276394,0 m 7.276397,-58.91273 -7.276393,0 m -7e-6,85.85574 0,7.09994 m 7.276399,-48.77113 -7.276395,0 m -10e-7,14.72818 -1e-6,6.12931 m 7.276391,20.8137 1e-6,-6.10415 M 10,281.66693 l 0,10.33306 m 7.276393,0 1e-6,-10.33306 m 6e-6,-59.99693 0,-7.3641 m -6e-6,67.36103 -7.276394,0 m 4e-6,-39.15808 -1e-6,6.10416 m 7.276395,-13.2041 -7.276394,-1e-5 m 3e-6,-21.103 -10e-7,7.3641 m 7.276397,-51.54865 -7.276393,0 m -6e-6,65.28755 0,7.09995 m 7.276396,-28.20295 2e-6,-7.36408 m -5e-6,35.56704 1e-6,-7.09995 m -7.276379,-166.09065 -10e-7,9.045512 m 7.276393,0 2e-6,-9.045512 m -1.9e-5,212.34867 0,-4.23539 m 1.9e-5,-208.11328 -7.276394,0 m 7.276375,208.11328 -7.276393,0 m 6e-6,-70.48972 0,7.36408 m 7.276396,-36.82045 -7.276393,0 m 7.276388,57.92346 0,-7.6096 m 4e-6,-28.22159 -7.276394,0 m 1e-5,-121.213948 -4e-6,47.573028 m 7.276388,66.27683 -7.276394,0 m 7.276394,14.72819 0,-7.3641 m 6e-6,-73.64092 3e-6,-47.573028 m 0,0 -7.276393,0 m 7.276376,199.067768 0,-7.09995 m 9e-6,-85.48205 -7.276394,0 m -1e-6,14.72818 -10e-7,7.3641 m 6e-6,-73.64094 0,7.36412 m 7.276389,58.91272 0,-7.36409 m 5e-6,-51.54863 0,-7.36412 m 0,0 -7.276394,0 m -2e-6,22.09228 -1e-6,7.36411 m -5e-6,65.04204 -10e-7,7.60959 m -3e-6,34.92269 0,7.09995 m 7e-6,-85.21791 0,7.36409"
         id="path3143" />
      <path
         style="fill:none;stroke:#000000;stroke-width:0.2;stroke-linecap:butt;stroke-linejoin:bevel;stroke-opacity:1;stroke-dasharray:1, 0.5, 0.2, 0.5;stroke-dashoffset:0"
         inkscape:connector-curvature="0"
         class="concave"
         d="m 17.276396,255.71295 -7.276393,0 m 7.276405,-129.77615 -7.276394,0 m 7.276383,116.57206 -7.276393,-1e-5 m 7.276394,-14.70954 -7.276393,0 m 7.276389,42.53228 -7.276393,0"
         id="path3145" />
      <path
         style="fill:none;stroke:#000000;stroke-width:0.30000001;stroke-linecap:butt;stroke-linejoin:bevel;stroke-opacity:1;stroke-dasharray:none;stroke-dashoffset:0"
         inkscape:connector-curvature="0"
         class="outer"
         d="m 20.958458,157.51899 0,3.11245 -3.682055,2.12583 0,7.36408 0,7.3641 0,7.36409 -10e-7,7.36409 3.682043,2.12583 0,3.11243 -3.682043,2.12583 3.682045,2.12583 2e-6,3.11244 -3.682047,2.12583 3.682041,2.12582 0,3.11243 -3.682043,2.12583 3.682051,2.12583 0,3.11244 -3.682051,2.12583 3.06465,1.76938 0,2.59055 -3.064652,1.76938 3.804801,2.1967 0,3.2162 -3.804801,2.1967 3.549972,2.04958 0,3.00079 -3.549973,2.04958 3.052076,1.76212 0,2.57991 -3.052077,1.76212 3.549971,2.04958 0,3.00078 -3.549971,2.04958 4.009336,2.31479 0,3.38909 -4.009336,2.31479 3.299983,1.90525 0,2.78948 -3.299985,1.90524 3.549975,2.04958 -2e-6,3.00079 -3.549973,2.04958 2.117697,1.22265 0,1.79009 -2.117697,1.22265 5.000001,2.88675 -2e-6,4.55956 -5,2.88675 -7.276393,0 -5,-2.88675 0,-4.55956 5,-2.88675 -2.117697,-1.22265 0,-1.79009 2.117698,-1.22265 -3.549974,-2.04958 0,-3.00079 3.549974,-2.04958 -3.299984,-1.90525 0,-2.78947 3.299985,-1.90525 -4.009335,-2.31479 0,-3.38909 4.009336,-2.31479 -3.549971,-2.04958 0,-3.00078 3.549971,-2.04958 -3.052078,-1.76212 1e-6,-2.57992 3.052078,-1.76212 -3.549974,-2.04958 0,-3.00079 3.549974,-2.04958 -3.804798,-2.1967 0,-3.21619 3.804799,-2.1967 -3.06465,-1.76938 0,-2.59055 3.064651,-1.76938 -3.68205,-2.12583 0,-3.11244 3.682051,-2.12583 -3.682044,-2.12583 0,-3.11243 3.682044,-2.12582 -3.682046,-2.12583 -1e-6,-3.11244 3.682048,-2.12583 -3.682043,-2.12583 0,-3.11243 3.682043,-2.12583 1e-6,-7.36409 10e-7,-7.36409 0,-7.3641 0,-7.36408 -3.682054,-2.12583 1e-6,-3.11245 3.682054,-2.12583 -3.682039,-2.12583 0,-3.11242 3.68204,-2.12583 -3.682039,-2.12583 0,-3.11242 3.68204,-2.12583 -3.682062,-2.12584 0,-3.11244 3.682062,-2.12584 -3.682039,-2.12583 0,-3.11242 3.68204,-2.12583 -4.999999,-2.88676 3e-6,-41.799511 5,-2.886757 -4.522756,-2.61122 1e-6,-3.823072 4.522756,-2.61122 2.100514,-3.638193 3.075366,0 2.100514,3.638193 4.522754,2.61122 0,3.823072 -4.522756,2.61122 4.999999,2.886757 -2e-6,41.799511 -5,2.88676 3.682039,2.12583 0,3.11242 -3.68204,2.12583 3.682062,2.12584 0,3.11244 -3.682062,2.12584 3.68204,2.12583 0,3.11242 -3.682042,2.12583 3.68204,2.12583 0,3.11242 -3.68204,2.12583 z"
         id="path3147" />
    </g>
    <g
       id="g3149"
       transform="matrix(2.248252,0,0,2.248252,-6.7469705,391.2894)">
      <path
         style="fill:#e5e5e5;fill-opacity:1;stroke:none"
         inkscape:connector-curvature="0"
         class="sticker"
         d="m 101.05385,203.35442 -3.671896,-1.39333 1.5e-5,-21.22665 z m 24.76252,-22.61996 4.47283,3.65061 -2.74679,16.92107 -5.39795,2.04829 z m -3.67191,22.61997 -2.88675,5 -15.31711,-1e-5 -2.88675,-5 z m -66.433667,-22.62001 8e-6,21.22665 -3.6719,1.39333 z m -3.671892,22.61998 -2.886749,5 -15.31712,0 -2.886757,-4.99999 z m -21.090626,1e-5 -5.397938,-2.0483 -2.746784,-16.92107 4.472852,-3.65061 z m 24.762533,-88.05337 2.88675,-5.00001 35.897684,1e-5 2.886742,5 z m 41.671176,44.00669 0,-21.22666 3.671886,-1.39332 z m 24.762496,-22.61999 5.39795,2.04829 2.74677,16.92106 -4.47283,3.65062 z m -21.09061,1e-5 2.88674,-5.00001 15.31711,0 2.88676,5 z m -49.014939,-1e-5 3.671915,1.39333 -4.5e-5,21.22664 z m -21.090619,-3e-5 2.886757,-5 15.317112,2e-5 2.88675,5.00001 z m -3.671892,22.61997 -4.472844,-3.6506 2.74679,-16.92108 5.397946,-2.04829 z m 98.53995,3e-5 4.99999,2.88675 0,15.65325 -4.99999,2.88675 z m -98.539965,21.42672 -4.999995,-2.88675 7e-6,-15.65325 5.000003,-2.88675 z m 76.543145,-32.7367 4.49157,0 1.64402,2.84752 -2.24577,3.88982 z m 3.88982,6.73734 2.24578,-3.88982 3.28805,2e-5 2.24578,3.8898 z m 7.77961,0 -2.24578,-3.8898 1.64403,-2.84754 4.49155,0 z m 3.8898,-6.73734 -4.49157,0 -1.64401,-2.84754 2.24578,-3.88981 z m -3.8898,-6.73735 -2.24578,3.8898 -3.28805,1e-5 -2.24578,-3.88981 z m -7.77961,0 2.24578,3.88981 -1.64403,2.84754 -4.49157,0 z m 11.66941,50.78406 -4.49157,-1e-5 -1.64403,-2.84754 2.24579,-3.8898 z m -3.88981,-6.73735 -2.24579,3.8898 -3.28804,1e-5 -2.24579,-3.8898 z m -7.77962,1e-5 2.24579,3.8898 -1.64403,2.84753 -4.49156,0 z m -3.8898,6.73733 4.49156,0 1.64403,2.84754 -2.24579,3.88981 z m 3.8898,6.73735 2.24579,-3.88981 3.28804,0 2.24579,3.88981 z m 7.77962,0 -2.24579,-3.88981 1.64403,-2.84754 4.49157,1e-5 z"
         id="path3151" />
      <path
         style="fill:none;stroke:#000000;stroke-width:0.2;stroke-linecap:butt;stroke-linejoin:bevel;stroke-opacity:1;stroke-dasharray:0.5, 1;stroke-dashoffset:0"
         inkscape:connector-curvature="0"
         class="convex"
         d="m 97.381984,115.30104 -41.671176,0 m -7e-6,44.00667 41.671183,2e-5 m -41.671183,-2e-5 -3.67187,-22.61997 m 0,0 -21.090619,-3e-5 m 0,0 -3.671892,22.61997 m 94.86804,44.04675 3.67191,-22.61997 m -70.105584,66.9227 41.671168,0 m 24.762526,-110.96942 -21.09061,1e-5 m -45.343077,88.05335 41.671176,2e-5 m 28.434401,-65.43341 -3.67189,-22.61997 m -66.433687,66.96274 41.671176,3e-5 m -70.105564,-22.91608 3.67187,22.61998 m 70.105595,-66.66666 -3.671886,22.61998 m -66.433709,44.04668 21.090626,-1e-5 m 0,0 3.671892,-22.61998 m -1.4e-5,88.34948 41.671175,3e-5 m 1.5e-5,-88.34949 3.671881,22.61998 m -73.77743,-44.04674 -1.5e-5,21.42675 m 98.539965,3e-5 0,-21.42675 m -28.434386,2e-5 -1.5e-5,21.42671 m -41.671168,-21.42673 -8e-6,21.42671 m 0,0 41.671176,2e-5 m 3.671881,22.61998 21.09061,1e-5 m -66.433659,-66.96278 41.671183,0"
         id="path3153" />
      <path
         style="fill:none;stroke:#000000;stroke-width:0.2;stroke-linecap:butt;stroke-linejoin:bevel;stroke-opacity:1;stroke-dasharray:1, 0.5, 0.2, 0.5;stroke-dashoffset:0"
         inkscape:connector-curvature="0"
         class="concave"
         d="m 115.48897,185.30709 3.88981,6.73735 m 0,0 -3.88981,6.73734 m -7.7796,-57.5214 7.77961,0 m -7.77963,44.04672 7.77962,-1e-5 m 1e-5,-44.04671 3.8898,6.73735 m 0,0 -3.8898,6.73734 m -7.77961,0 -3.88982,-6.73734 m 0,0 3.88982,-6.73735 m -2e-5,57.5214 -3.8898,-6.73735 m 0,0 3.8898,-6.73733 m 7.77963,-30.57203 -7.77961,0 m 7.7796,44.04671 -7.77962,0"
         id="path3155" />
      <path
         style="fill:none;stroke:#000000;stroke-width:0.30000001;stroke-linecap:butt;stroke-linejoin:bevel;stroke-opacity:1;stroke-dasharray:none;stroke-dashoffset:0"
         inkscape:connector-curvature="0"
         class="outer"
         d="m 97.381984,138.08107 3.671886,-1.39332 2.88674,-5.00001 15.31711,0 2.88676,5 5.39795,2.04829 2.74677,16.92106 -4.47283,3.65062 4.99999,2.88675 0,15.65325 -4.99999,2.88675 4.47283,3.65061 -2.74679,16.92107 -5.39795,2.04829 -2.88675,5 -15.31711,-1e-5 -2.88675,-5 -3.671896,-1.39333 1.5e-5,-21.22665 0,22.91607 0,21.09061 -1.5e-5,22.91604 0,21.42677 -1.5e-5,22.91606 -41.671168,-3e-5 8e-6,-22.91606 7e-6,-21.42674 7e-6,-22.91606 0,-21.09062 0,-22.91606 8e-6,21.22665 -3.6719,1.39333 -2.886749,5 -15.31712,0 -2.886757,-4.99999 -5.397938,-2.0483 -2.746784,-16.92107 4.472852,-3.65061 -4.999995,-2.88675 7e-6,-15.65325 5.000003,-2.88675 -4.472844,-3.6506 2.74679,-16.92108 5.397946,-2.04829 2.886757,-5 15.317112,2e-5 2.88675,5.00001 3.671915,1.39333 -4.5e-5,21.22664 0,-22.91606 7e-6,-21.09061 2.88675,-5.00001 35.897684,1e-5 2.886742,5 0,21.09061 0,22.91608 z m 10.929136,9.91666 1.64402,2.84752 -2.24577,3.88982 2.24578,-3.88982 3.28805,2e-5 2.24578,3.8898 -2.24578,-3.8898 1.64403,-2.84754 4.49155,0 -4.49157,0 -1.64401,-2.84754 2.24578,-3.88981 -2.24578,3.8898 -3.28805,1e-5 -2.24578,-3.88981 2.24578,3.88981 -1.64403,2.84754 -4.49157,0 z m -1e-5,44.0467 1.64403,2.84754 -2.24579,3.88981 2.24579,-3.88981 3.28804,0 2.24579,3.88981 -2.24579,-3.88981 1.64403,-2.84754 4.49157,1e-5 -4.49157,-1e-5 -1.64403,-2.84754 2.24579,-3.8898 -2.24579,3.8898 -3.28804,1e-5 -2.24579,-3.8898 2.24579,3.8898 -1.64403,2.84753 -4.49156,0 z"
         id="path3157" />
    </g>
    <g
       id="g3159"
       transform="matrix(-2.2153738,0.38308737,-0.38308737,-2.2153738,719.05074,757.98812)">
      <path
         style="fill:#e5e5e5;fill-opacity:1;stroke:none"
         inkscape:connector-curvature="0"
         class="sticker"
         d="m 160.17597,103.57309 -0.47471,4.22508 -2.85235,1.24553 -3.42166,-2.52365 z m -6.74872,2.94696 -2.05544,3.72181 -3.11188,0.0592 -2.19545,-3.64097 z m -7.36277,0.14001 -3.32326,2.65192 -2.89763,-1.1362 -0.635,-4.20398 z m -6.85589,-2.68826 -4.08512,1.1783 -2.24227,-2.15858 1.02213,-4.126969 z"
         id="path3161" />
      <path
         style="fill:none;stroke:#000000;stroke-width:0.2;stroke-linecap:butt;stroke-linejoin:bevel;stroke-opacity:1;stroke-dasharray:0.5, 1;stroke-dashoffset:0"
         inkscape:connector-curvature="0"
         class="convex"
         d="m 133.90333,98.864551 5.30526,5.107249 m 0,0 6.85589,2.68826 m 0,0 7.36277,-0.14001 m 0,0 6.74872,-2.94696"
         id="path3163" />
      <path
         style="fill:none;stroke:#000000;stroke-width:0.30000001;stroke-linecap:butt;stroke-linejoin:bevel;stroke-opacity:1;stroke-dasharray:none;stroke-dashoffset:0"
         inkscape:connector-curvature="0"
         class="outer"
         d="m 149.75378,50.602372 4.8565,-5.179182 -4.23571,-6.808653 3.85209,-5.359173 -2.75556,-6.543398 0.74716,-4.168958 9.60457,-3.811091 6.14867,6.634355 -8.39225,46.826929 5.30526,5.107268 2.94696,6.748721 0.14001,7.362754 -2.68826,6.85589 -5.10725,5.305256 -0.47471,4.22508 -2.85235,1.24553 -3.42166,-2.52365 -2.05544,3.72181 -3.11188,0.0592 -2.19545,-3.64097 -3.32326,2.65192 -2.89763,-1.1362 -0.635,-4.20398 -4.08512,1.1783 -2.24227,-2.15858 1.02213,-4.126969 -2.94696,-6.748721 -0.14001,-7.362768 2.68826,-6.855876 5.10725,-5.30526 5.21413,-3.221989 1.3424,-7.490277 4.85648,-5.179167 z m -7.16212,49.143776 4.22639,2.709192 4.90419,-1.07282 2.70918,-4.226387 -1.07281,-4.904196 -4.2264,-2.70918 -4.90419,1.072809 -2.70918,4.226386 z"
         id="path3165" />
    </g>
    <g
       id="g3167"
       transform="matrix(2.248252,0,0,2.248252,284.17696,629.6854)">
      <path
         style="fill:#e5e5e5;fill-opacity:1;stroke:none"
         inkscape:connector-curvature="0"
         class="sticker"
         d="M 7.510083,62.041874 5,60.592677 5,58.4709 7.510083,57.021703 z m 0,-5.020171 L 5,55.572505 l 1e-6,-2.121776 2.510082,-1.449198 z m 0,-5.020172 -2.51008,-1.449182 0,-2.121777 2.510081,-1.449197 z m 1e-6,-5.020156 -2.510082,-1.449198 0,-2.121761 2.510082,-1.449198 z m 0,-5.020157 -2.510083,-1.449197 1e-6,-2.121777 2.510083,-1.449197 z m 1e-6,-5.020171 -2.510084,-1.449198 1e-6,-2.121776 2.510083,-1.449198 z m 0,-5.020172 -2.510083,-1.449197 0,-2.121776 2.510084,-1.449198 z m 1e-6,-5.020171 -2.510084,-1.449198 0,-2.121776 2.510084,-1.449197 z m 7.276391,30.120999 2.510083,1.449197 -1e-6,2.121777 -2.510083,1.449197 z m 0,-5.020172 2.510083,1.449198 0,2.121776 -2.510083,1.449198 z m 0,-5.020156 2.510081,1.449197 0,2.121777 -2.510081,1.449182 z m 1e-6,-5.020157 2.510082,1.449198 0,2.121761 -2.510083,1.449198 z m 10e-7,-5.020171 2.510083,1.449197 -1e-6,2.121777 -2.510083,1.449197 z m 0,-5.020172 2.510083,1.449198 0,2.121776 -2.510083,1.449198 z m 0,-5.020171 2.510084,1.449198 -10e-7,2.121776 -2.510083,1.449197 z m 0,-5.020171 2.510084,1.449197 0,2.121776 -2.510084,1.449198 z m -3e-6,40.161341 -2.100514,3.638193 -3.075365,0 -2.100514,-3.638193 z"
         id="path3169" />
      <path
         style="fill:none;stroke:#000000;stroke-width:0.2;stroke-linecap:butt;stroke-linejoin:bevel;stroke-opacity:1;stroke-dasharray:0.5, 1;stroke-dashoffset:0"
         inkscape:connector-curvature="0"
         class="convex"
         d="m 14.786477,46.981375 1e-6,-5.020157 m -7.276394,5.020157 -1e-6,5.020156 m 7.276394,0 0,-5.020156 m -7.276394,5.020156 0,5.020172 m 7.276394,0 0,-5.020172 m -7.276392,-20.080656 0,5.020172 m 7.276394,-10.040343 0,-5.020171 m -7.276394,15.060514 -1e-6,5.020171 m 7.276395,-5.020171 0,-5.020172 m -7.276396,25.100828 0,5.020171 m 7.276396,-30.120999 0,-5.020171 m -7.276393,0 -1e-6,5.020171 m 7.276393,10.040343 10e-7,-5.020171 m -7.276395,5.020171 0,5.020157 m 2e-6,-25.100842 0,5.020171 m 7.27639,35.14117 10e-7,-5.020171"
         id="path3171" />
      <path
         style="fill:none;stroke:#000000;stroke-width:0.2;stroke-linecap:butt;stroke-linejoin:bevel;stroke-opacity:1;stroke-dasharray:1, 0.5, 0.2, 0.5;stroke-dashoffset:0"
         inkscape:connector-curvature="0"
         class="concave"
         d="m 14.786478,41.961218 -7.276394,0 m 7.276395,-15.060514 -7.276393,0 m 7.276391,20.080671 -7.276393,0 m 7.276393,5.020156 -7.276394,0 m 7.276396,-20.080656 -7.276394,0 m -2e-6,30.120999 7.276393,0 m 3e-6,-25.100827 -7.276394,0 m 7.276392,20.080656 -7.276394,0"
         id="path3173" />
      <path
         style="fill:none;stroke:#000000;stroke-width:0.30000001;stroke-linecap:butt;stroke-linejoin:bevel;stroke-opacity:1;stroke-dasharray:none;stroke-dashoffset:0"
         inkscape:connector-curvature="0"
         class="outer"
         d="m 17.29656,43.410416 0,2.121761 -2.510083,1.449198 2.510081,1.449197 0,2.121777 -2.510081,1.449182 2.510083,1.449198 0,2.121776 -2.510083,1.449198 2.510083,1.449197 -1e-6,2.121777 -2.510083,1.449197 -2.100514,3.638193 -3.075365,0 L 7.510083,62.041874 5,60.592677 5,58.4709 7.510083,57.021703 5,55.572505 l 1e-6,-2.121776 2.510082,-1.449198 -2.51008,-1.449182 0,-2.121777 2.510081,-1.449197 -2.510082,-1.449198 0,-2.121761 2.510082,-1.449198 -2.510083,-1.449197 1e-6,-2.121777 2.510083,-1.449197 -2.510084,-1.449198 1e-6,-2.121776 2.510083,-1.449198 -2.510083,-1.449197 0,-2.121776 2.510084,-1.449198 -2.510084,-1.449198 0,-2.121776 2.510084,-1.449197 7.276393,0 2.510084,1.449197 0,2.121776 -2.510084,1.449198 2.510084,1.449198 -10e-7,2.121776 -2.510083,1.449197 2.510083,1.449198 0,2.121776 -2.510083,1.449198 2.510083,1.449197 -1e-6,2.121777 -2.510083,1.449197 z"
         id="path3175" />
    </g>
  </g>
  <style
     id="style3117"
     type="text/css">
    path {
        fill: none;
        stroke-linecap: butt;
        stroke-linejoin: bevel;
        stroke-dasharray: none;
    }
    path.outer {
        stroke: #000000;
        stroke-dasharray: none;
        stroke-dashoffset: 0;
        stroke-width: 0.3;
        stroke-opacity: 1.0;
    }
    path.convex {
        stroke: #000000;
        stroke-dasharray: 0.50,1.00;
        stroke-dashoffset:0;
        stroke-width:0.2;
        stroke-opacity: 1.0
    }
    path.concave {
        stroke: #000000;
        stroke-dasharray: 1.00,0.50,0.20,0.50;
        stroke-dashoffset: 0;
        stroke-width: 0.2;
        stroke-opacity: 1.0
    }
    path.freestyle {
        stroke: #000000;
        stroke-dasharray: none;
        stroke-dashoffset: 0;
        stroke-width: 0.2;
        stroke-opacity: 1.0
    }
    path.outer_background {
        stroke: #ffffff;
        stroke-opacity: 1.0;
        stroke-width: 0.5
    }
    path.inner_background {
        stroke: #ffffff;
        stroke-opacity: 1.0;
        stroke-width: 0.2
    }
    path.sticker {
        fill: #e5e5e5;
        stroke: none;
        fill-opacity: 1.0;
    }
    path.arrow {
        fill: #000;
    }
    text {
        font-style: normal;
        fill: #000000;
        fill-opacity: 1.0;
        stroke: none;
    }
    text, tspan {
        text-anchor:middle;
    }
    </style>
</svg>
